<?xml version="1.0" encoding="utf-8"?>
<!-- Generator: Adobe Illustrator 16.0.4, SVG Export Plug-In . SVG Version: 6.00 Build 0)  -->
<!DOCTYPE svg PUBLIC "-//W3C//DTD SVG 1.1//EN" "http://www.w3.org/Graphics/SVG/1.1/DTD/svg11.dtd">
<svg version="1.1" id="Layer_1" xmlns="http://www.w3.org/2000/svg" xmlns:xlink="http://www.w3.org/1999/xlink" x="0px" y="0px"
	 width="100px" height="100px" viewBox="0 0 100 100" enable-background="new 0 0 100 100" xml:space="preserve">
<g>
	<path fill="#555655" d="M50,0C22.385,0,0,22.385,0,50.001C0,77.615,22.385,100,50,100c27.614,0,50-22.385,50-49.999
		C100,22.385,77.614,0,50,0z M62.962,27.283c3.683,0,6.666,2.986,6.666,6.668s-2.983,6.668-6.666,6.668
		c-3.682,0-6.666-2.986-6.666-6.668S59.28,27.283,62.962,27.283z M37.037,27.283c3.68,0,6.666,2.986,6.666,6.668
		s-2.986,6.668-6.666,6.668c-3.682,0-6.666-2.986-6.666-6.668S33.355,27.283,37.037,27.283z M49.91,81.483
		c-14.384,0-26.706-8.833-31.812-21.366l63.806-0.002C76.909,72.882,64.467,81.483,49.91,81.483z"/>
</g>
</svg>
