<?xml version="1.0" encoding="utf-8"?>
<!-- Generator: Adobe Illustrator 16.0.4, SVG Export Plug-In . SVG Version: 6.00 Build 0)  -->
<!DOCTYPE svg PUBLIC "-//W3C//DTD SVG 1.1//EN" "http://www.w3.org/Graphics/SVG/1.1/DTD/svg11.dtd">
<svg version="1.1" id="Layer_1" xmlns="http://www.w3.org/2000/svg" xmlns:xlink="http://www.w3.org/1999/xlink" x="0px" y="0px"
	 width="100px" height="100px" viewBox="0 0 100 100" enable-background="new 0 0 100 100" xml:space="preserve">
<g>
	<path fill="#555655" d="M8.257,60.52L6.825,76.98c-1.165,0.571-2.259,1.327-3.232,2.289c-4.785,4.734-4.792,12.41-0.016,17.147
		c0,0.011,0.007,0.019,0.014,0.025c0.004,0.004,0.015,0.008,0.023,0.015c4.792,4.728,12.545,4.72,17.329-0.011
		c1.006-1.002,1.787-2.134,2.375-3.335l15.242-2.072l16.604-16.425l-30.577-30.25L8.257,60.52z"/>
	<path fill="#555655" d="M91.18,50.867c11.761-11.636,11.761-30.505,0-42.141c-11.762-11.635-30.832-11.635-42.592,0
		c-3.934,3.896-6.521,8.601-7.823,13.571c-0.005,0.007-0.029,0.011-0.031,0.018c-0.206,0.85-4.572,15.357-5.187,16.695
		c-0.532,1.129-1.233,2.308-2.136,3.465l6.205,6.141l12.548-22.674c0.503-0.912,1.655-1.245,2.577-0.745
		c0.921,0.499,1.254,1.638,0.751,2.546l-13.081,23.64l5.659,5.595l23.892-12.94c0.918-0.499,2.064-0.17,2.571,0.745
		c0.505,0.908,0.17,2.047-0.751,2.546L50.864,59.742l6.203,6.138c1.17-0.894,2.361-1.584,3.501-2.112
		c1.354-0.607,16.016-4.926,16.876-5.132c0.008,0,0.012-0.025,0.019-0.033C82.485,57.315,87.245,54.758,91.18,50.867z"/>
</g>
</svg>
