<?xml version="1.0" encoding="utf-8"?>
<!-- Generator: Adobe Illustrator 16.0.4, SVG Export Plug-In . SVG Version: 6.00 Build 0)  -->
<!DOCTYPE svg PUBLIC "-//W3C//DTD SVG 1.1//EN" "http://www.w3.org/Graphics/SVG/1.1/DTD/svg11.dtd">
<svg version="1.1" id="Layer_1" xmlns="http://www.w3.org/2000/svg" xmlns:xlink="http://www.w3.org/1999/xlink" x="0px" y="0px"
	 width="100px" height="100px" viewBox="0 0 100 100" enable-background="new 0 0 100 100" xml:space="preserve">
<path fill="#555655" d="M81.674,52.299L66.263,15.372l9.049-9.049c1.061-1.058,1.375-2.651,0.804-4.035
	C75.54,0.904,74.19,0,72.693,0H48.618c-2.047,0-3.704,1.66-3.704,3.704c0,2.047,1.657,3.704,3.704,3.704h15.131l-4.478,4.481
	c-1.061,1.06-1.379,2.657-0.8,4.042l4.087,9.688H31.899l-2.009-3.538h0.805c4.378,0,4.378-8.055,0-8.055H17.764
	c-4.378,0-4.378,8.055,0,8.055h3.558l6.38,11.289l-7.315,18.507C8.836,53.722,0,63.701,0,75.774C0,89.153,10.847,100,24.228,100
	c13.38,0,24.229-10.847,24.229-24.226c0-4.919-1.485-9.477-4.004-13.293l26.406-17.205l2.684,6.38
	c-12.337,1.129-22,11.487-22,24.118C51.543,89.153,62.389,100,75.771,100C89.15,100,100,89.153,100,75.774
	C100,64.432,92.195,54.938,81.674,52.299z M24.228,88.889c-7.232,0-13.117-5.883-13.117-13.114c0-7.234,5.884-13.119,13.117-13.119
	c7.233,0,13.118,5.885,13.118,13.119C37.346,83.006,31.461,88.889,24.228,88.889z M28.356,51.921l4.257-9.864l5.899,14.189
	C35.56,54.087,32.111,52.568,28.356,51.921z M45.215,53.241l-9.111-20.215h29.583l2.238,5.302L45.215,53.241z M75.771,88.889
	c-7.234,0-13.119-5.883-13.119-13.114c0-7.234,5.885-13.119,13.119-13.119c7.233,0,13.118,5.885,13.118,13.119
	C88.89,83.006,83.005,88.889,75.771,88.889z"/>
</svg>
