<?xml version="1.0" encoding="utf-8"?>
<!-- Generator: Adobe Illustrator 16.0.4, SVG Export Plug-In . SVG Version: 6.00 Build 0)  -->
<!DOCTYPE svg PUBLIC "-//W3C//DTD SVG 1.1//EN" "http://www.w3.org/Graphics/SVG/1.1/DTD/svg11.dtd">
<svg version="1.1" id="Layer_1" xmlns="http://www.w3.org/2000/svg" xmlns:xlink="http://www.w3.org/1999/xlink" x="0px" y="0px"
	 width="100px" height="100px" viewBox="0 0 100 100" enable-background="new 0 0 100 100" xml:space="preserve">
<g>
	<path fill="#555655" d="M96.661,19.444c4.449-4.445,4.453-11.657,0-16.109c-4.448-4.449-11.66-4.445-16.109,0l-2.228,2.231
		l16.113,16.106L96.661,19.444z"/>
	<polygon fill="#555655" points="61.986,35.699 61.99,35.695 64.608,38.314 71.202,44.907 91.815,24.298 75.705,8.185 
		55.089,28.798 61.683,35.392 	"/>
	
		<rect x="16.885" y="59.588" transform="matrix(-0.707 -0.7072 0.7072 -0.707 -2.4558 142.4319)" fill="#555655" width="22.78" height="24.274"/>
	<polygon fill="#555655" points="0,100 25.13,90.982 9.021,74.87 	"/>
	<polygon fill="#555655" points="91.595,70.54 79.315,82.819 76.389,79.897 88.668,67.614 81.728,60.67 73.828,68.565 
		70.905,65.643 78.802,57.747 71.856,50.803 59.577,63.082 56.651,60.16 68.935,47.877 61.99,40.933 54.095,48.828 51.168,45.906 
		59.063,38.01 52.119,31.065 39.84,43.345 36.914,40.422 49.197,28.143 42.252,21.199 34.357,29.094 31.431,26.168 39.327,18.272 
		32.382,11.328 20.103,23.611 17.177,20.685 29.459,8.406 21.054,0 0,21.05 78.949,100 100,78.946 	"/>
</g>
</svg>
