<?xml version="1.0" encoding="utf-8"?>
<!-- Generator: Adobe Illustrator 16.0.4, SVG Export Plug-In . SVG Version: 6.00 Build 0)  -->
<!DOCTYPE svg PUBLIC "-//W3C//DTD SVG 1.1//EN" "http://www.w3.org/Graphics/SVG/1.1/DTD/svg11.dtd">
<svg version="1.1" id="Layer_1" xmlns="http://www.w3.org/2000/svg" xmlns:xlink="http://www.w3.org/1999/xlink" x="0px" y="0px"
	 width="100px" height="100px" viewBox="0 0 100 100" enable-background="new 0 0 100 100" xml:space="preserve">
<path fill="#555655" d="M68.978,19.95c5.199,2.651,11.563,0.578,14.206-4.603c2.644-5.193,0.576-11.545-4.625-14.196
	C73.376-1.49,67.016,0.565,64.372,5.758C61.729,10.938,63.795,17.309,68.978,19.95z M78.639,61.317L101,54.059l-3.722-11.456
	l-14.103,4.576C69.672,5.159,32.498,16.022,32.498,16.022l-15.711,5.833l4.101,11.326l13.415-5.022
	c4.83-1.761,11.836,0.429,11.836,0.429L26.688,62.442L1,74.494l7.686,12.545l29.923-12.617l7.138-9.267l12.646,14.167l-3.089,20.37
	L70.745,100l4.134-27.329L62.175,56.042l6.13-8.721L78.639,61.317z"/>
</svg>
