<?xml version="1.0" encoding="utf-8"?>
<!-- Generator: Adobe Illustrator 16.0.4, SVG Export Plug-In . SVG Version: 6.00 Build 0)  -->
<!DOCTYPE svg PUBLIC "-//W3C//DTD SVG 1.1//EN" "http://www.w3.org/Graphics/SVG/1.1/DTD/svg11.dtd">
<svg version="1.1" id="Layer_1" xmlns="http://www.w3.org/2000/svg" xmlns:xlink="http://www.w3.org/1999/xlink" x="0px" y="0px"
	 width="100px" height="100px" viewBox="0 0 100 100" enable-background="new 0 0 100 100" xml:space="preserve">
<path fill="#555655" d="M23.958,0h-7.372v16.667h-3.686V0H5.53v16.667H0V100h29.489V16.667h-5.53V0z M20.7,86.209H7.429V72.881H20.7
	V86.209z M20.7,37.29H7.429V23.962H20.7V37.29z M33.406,100h33.17V0h-33.17V100z M39.731,6.669h13.271v13.329H39.731V6.669z
	 M39.731,26.667h13.271v13.328H39.731V26.667z M39.731,46.665h13.271v13.328H39.731V46.665z M88.788,33.333V17.593h-7.372v15.741
	H70.208V100H100V33.333H88.788z M91.059,74.125h-13.27V60.797h13.27V74.125z M91.059,54.072h-13.27V40.744h13.27V54.072z"/>
</svg>
