<?xml version="1.0" encoding="utf-8"?>
<!-- Generator: Adobe Illustrator 16.0.4, SVG Export Plug-In . SVG Version: 6.00 Build 0)  -->
<!DOCTYPE svg PUBLIC "-//W3C//DTD SVG 1.1//EN" "http://www.w3.org/Graphics/SVG/1.1/DTD/svg11.dtd">
<svg version="1.1" id="Layer_1" xmlns="http://www.w3.org/2000/svg" xmlns:xlink="http://www.w3.org/1999/xlink" x="0px" y="0px"
	 width="100px" height="100px" viewBox="0 0 100 100" enable-background="new 0 0 100 100" xml:space="preserve">
<path fill="#555655" d="M0,100h78.7V28.342H0V100z M68.515,89.151h-58.33V52.388h58.33V89.151z M9.878,38.362h58.641v3.773H9.878
	V38.362z M82.403,0v24.54H100V0H82.403z M82.403,100H100V28.342H82.403V100z M0.003,24.54H78.7V0H0.003V24.54z M65.466,7.171
	c2.76,0,4.999,2.285,4.999,5.104c0,2.815-2.239,5.104-4.999,5.104c-2.764,0-5.002-2.288-5.002-5.104
	C60.464,9.456,62.702,7.171,65.466,7.171z M48.336,7.171c2.759,0,4.999,2.285,4.999,5.104c0,2.815-2.239,5.104-4.999,5.104
	c-2.764,0-5.002-2.288-5.002-5.104C43.334,9.456,45.573,7.171,48.336,7.171z M31.669,7.171c2.76,0,4.999,2.285,4.999,5.104
	c0,2.815-2.239,5.104-4.999,5.104c-2.763,0-5.002-2.288-5.002-5.104C26.667,9.456,28.906,7.171,31.669,7.171z M15.003,7.171
	c2.76,0,4.999,2.285,4.999,5.104c0,2.815-2.239,5.104-4.999,5.104c-2.763,0-5.002-2.288-5.002-5.104
	C10,9.456,12.24,7.171,15.003,7.171z"/>
</svg>
