<?xml version="1.0" encoding="utf-8"?>
<!-- Generator: Adobe Illustrator 16.0.4, SVG Export Plug-In . SVG Version: 6.00 Build 0)  -->
<!DOCTYPE svg PUBLIC "-//W3C//DTD SVG 1.1//EN" "http://www.w3.org/Graphics/SVG/1.1/DTD/svg11.dtd">
<svg version="1.1" id="Layer_1" xmlns="http://www.w3.org/2000/svg" xmlns:xlink="http://www.w3.org/1999/xlink" x="0px" y="0px"
	 width="247px" height="80px" viewBox="0 0 247 80" enable-background="new 0 0 247 80" xml:space="preserve">
<g>
	<g>
		<g>
			<path fill="#666766" d="M103.906,11.412c3.814,0,8.076,2.241,8.076,8.744v9.645c0,2.542-0.599,4.56-2.765,6.056
				c2.166,1.496,2.765,3.515,2.765,6.055v10.543c0,6.503-4.262,8.746-8.076,8.746H93.44v-49.79H103.906z M103.534,58.286
				c3.663,0,5.31-2.842,5.31-5.981V41.539c0-2.916-1.051-4.562-3.815-5.384c2.764-0.895,3.815-2.465,3.815-5.381V20.382
				c0-3.214-1.646-5.982-5.31-5.982h-6.802v43.886H103.534z M97.926,35.559V15.447h5.608c2.841,0,4.111,2.169,4.111,4.936v10.392
				c0,3.289-1.642,4.785-5.233,4.785H97.926z M102.412,36.682c3.591,0,5.233,1.494,5.233,4.857v10.765
				c0,2.692-1.27,4.857-4.111,4.857h-5.608v-20.48H102.412z M104.504,20.607c0-1.498-0.447-2.169-1.494-2.169h-1.793v14.504h1.865
				c1.05,0,1.421-0.6,1.421-2.169V20.607z M104.504,41.463c0-1.57-0.372-2.165-1.421-2.165h-1.865v14.876h1.793
				c1.047,0,1.494-0.671,1.494-2.169V41.463z"/>
			<path fill="#666766" d="M116.646,61.202v-49.79h16.225v7.176h-8.448v13.607h5.605v6.801h-5.605v15.029h8.448v7.176H116.646z
				 M129.878,15.597v-1.121h-9.942v43.736h9.942v-1.123h-8.748V36.155h6.355v-1.119h-6.355V15.597H129.878z"/>
			<path fill="#666766" d="M143.748,52.678l-0.975,8.524h-6.955l6.658-49.79h7.25l6.655,49.79h-7.626l-0.747-8.524H143.748z
				 M152.72,58.212l-5.681-43.736h-1.874l-5.904,43.736h1.123l1.118-8.524h9.048l1.047,8.524H152.72z M141.651,48.565l4.414-32.969
				l4.334,32.969H141.651z M147.335,45.577l-1.198-13.831l-1.566,13.831H147.335z"/>
			<path fill="#666766" d="M179.117,61.202h-7.402c-0.674-1.943-1.046-3.964-1.046-7.699V42.661c0-1.422-0.375-2.245-1.72-2.245
				h-1.793v20.785h-7.774v-49.79h10.465c3.81,0,8.072,2.241,8.072,8.744v11.364c0,2.319-0.597,4.262-2.616,5.608
				c2.019,1.344,2.844,3.215,2.844,5.68v10.094C178.146,56.043,178.591,58.81,179.117,61.202z M174.928,53.199V42.735
				c0-2.167-0.749-4.711-3.961-5.534c2.767-0.895,3.737-2.617,3.737-5.532V20.382c0-3.214-1.568-5.982-5.232-5.982h-6.803v43.812
				h1.195v-20.56h4.489c3.286,0,5.381,1.793,5.381,5.083v10.464c0,1.647,0.151,3.441,0.446,5.013h1.199
				C175.152,56.718,174.928,54.772,174.928,53.199z M163.864,36.605V15.447h5.608c2.84,0,4.111,2.169,4.111,4.936v11.287
				c0,3.291-1.644,4.937-5.23,4.937H163.864z M170.444,20.607c0-1.498-0.449-2.169-1.496-2.169h-1.793v15.401h1.867
				c1.049,0,1.422-0.599,1.422-2.17V20.607z"/>
			<path fill="#666766" d="M193.557,61.202h-10.242v-49.79h10.242c4.711,0,9.046,2.765,9.046,9.717v30.652
				C202.603,58.735,198.269,61.202,193.557,61.202z M193.184,14.476h-6.58v43.736h6.58c3.812,0,6.127-2.469,6.127-6.579V21.129
				C199.312,17.092,196.996,14.476,193.184,14.476z M187.799,57.089V15.597h5.385c3.289,0,4.933,2.093,4.933,5.532v30.504
				c0,3.737-1.87,5.457-4.933,5.457H187.799z M194.903,21.129c0-1.719-0.673-2.541-2.017-2.541h-1.795v35.509h1.795
				c1.344,0,2.017-0.821,2.017-2.616V21.129z"/>
			<path fill="#666766" d="M207.433,61.202v-49.79h16.226v7.176h-8.448v13.607h5.604v6.801h-5.604v15.029h8.448v7.176H207.433z
				 M220.669,15.597v-1.121h-9.944v43.736h9.944v-1.123h-8.748V36.155h6.353v-1.119h-6.353V15.597H220.669z"/>
			<path fill="#666766" d="M237.715,61.202h-10.24v-49.79h10.24c4.713,0,9.047,2.765,9.047,9.717v30.652
				C246.763,58.735,242.429,61.202,237.715,61.202z M237.342,14.476h-6.579v43.736h6.579c3.816,0,6.131-2.469,6.131-6.579V21.129
				C243.473,17.092,241.158,14.476,237.342,14.476z M231.961,57.089V15.597h5.38c3.292,0,4.937,2.093,4.937,5.532v30.504
				c0,3.737-1.869,5.457-4.937,5.457H231.961z M239.063,21.129c0-1.719-0.673-2.541-2.019-2.541h-1.794v35.509h1.794
				c1.346,0,2.019-0.821,2.019-2.616V21.129z"/>
		</g>
	</g>
</g>
<g>
	<path fill="#666766" d="M66.664,49.84c0.591-0.74,1.274-1.207,2.056-1.486c0.357-0.127,0.711-0.204,1.053-0.233
		c-0.107-0.098-0.216-0.2-0.333-0.309c-0.167-0.157-0.338-0.314-0.51-0.474c-1.45-1.342-3.138-2.905-4.133-4.919
		c-0.265,0.634-0.724,1.347-1.517,1.904c0.606,0.509,1.651,1.53,2.504,3.104C66.221,48.232,66.549,49.047,66.664,49.84z"/>
	<path fill="#666766" d="M39.957,33.406c0.281,2.216,1.226,2.371,3.14,2.681c0.923,0.149,2.071,0.336,3.325,0.832
		c2.295,0.908,4.122,2.404,5.887,3.852c1.326,1.087,2.599,2.128,3.922,2.756c1.122,0.522,2.709,0.709,3.513,0.708
		c2.147-0.004,3.24-0.807,3.794-1.631c-0.551,0.259-1.277,0.446-2.229,0.446c-0.279,0-0.573-0.017-0.875-0.049
		c-3.508-0.38-4.763-1.865-6.844-4.325c-0.875-1.034-1.964-2.321-3.458-3.799c-2.509-2.48-6.075-4.351-8.296-4.351
		c-0.672,0-1.173,0.172-1.489,0.511c-0.183,0.198-0.311,0.461-0.384,0.784C39.858,32.223,39.935,33.041,39.957,33.406z"/>
	<path fill="#666766" d="M60.095,48.427c0.609,0.043,1.175,0.213,1.671,0.484c-0.749-1.494-1.963-2.915-4.546-3.915
		c-0.118-0.029-0.235-0.061-0.352-0.096c0.399,0.405,0.744,0.891,0.979,1.475c0.302,0.75,0.214,1.706,0.018,2.547
		C58.577,48.53,59.366,48.375,60.095,48.427z"/>
	<path fill="#666766" d="M41.837,29.477c2.507,0,6.306,1.957,9.033,4.653c1.528,1.511,2.633,2.818,3.521,3.869
		c2.042,2.413,3.066,3.625,6.157,3.959c0.264,0.029,0.52,0.043,0.761,0.043c1.44,0,2.184-0.503,2.543-0.888
		c-0.31,0.095-0.689,0.168-1.133,0.168c-0.253,0-0.527-0.024-0.818-0.081c-2.099-0.41-4.151-2.297-6.1-5.61
		c-3.192-5.422-7.476-8.759-11.46-8.927c-1.659-0.069-2.83,0.297-3.482,1.09c-0.53,0.645-0.629,1.471-0.616,2.067
		C40.684,29.593,41.216,29.477,41.837,29.477z"/>
	<path fill="#666766" d="M46.266,49.045c-0.498,0.581-0.928,1.083-1.193,2.199c-0.188,0.791-0.104,1.612,0.043,2.271
		c0.048,0.212,0.123,0.397,0.206,0.56c0.583-1.219,1.513-2.513,2.426-3.778c1.001-1.388,2.036-2.822,2.179-3.684
		c0.166-0.995,0.05-1.782-0.335-2.275c-0.316-0.406-0.83-0.639-1.526-0.695c-0.396-0.031-0.815-0.012-1.075,0.007
		c0.171,0.176,0.322,0.373,0.446,0.588c0.5,0.865,0.519,1.918,0.053,2.966C47.111,48.06,46.663,48.583,46.266,49.045z"/>
	<path fill="#666766" d="M52.117,51.476c-0.646,0.854-1.265,1.676-1.638,2.591c0.638-0.569,1.432-0.881,2.302-0.881
		c0.941,0,1.889,0.241,2.704,0.714v0c-0.027-0.629,0.043-1.348,0.267-2.167c0.11-0.404,0.452-1.222,0.48-1.283
		c0.318-0.678,1.054-2.661,0.642-3.686c-0.501-1.246-1.689-1.951-2.695-2.339c0.249,0.671,0.265,1.443,0.221,2.159
		C54.275,48.619,53.179,50.072,52.117,51.476z"/>
	<path fill="#666766" d="M11.135,31.436c1.015,1.131,2.496,3.282,3.055,6.632c0.041,0.245,0.067,0.489,0.083,0.733
		c0.522-1.144,0.997-2.861,0.636-4.977c-0.281-1.645-0.982-2.623-1.356-3.046C12.835,31.158,12.021,31.379,11.135,31.436z"/>
	<path fill="#666766" d="M15.159,29.485c-0.223,0.262-0.465,0.497-0.725,0.708c0.438,0.523,1.07,1.485,1.41,2.964
		c0.158-0.796,0.243-1.677,0.157-2.349c-0.097-0.752-0.306-1.375-0.486-1.793C15.404,29.176,15.288,29.334,15.159,29.485z"/>
	<path fill="#666766" d="M22.575,44.554c-0.686,0.219-1.161,0.594-1.396,0.812c0.458,0.707,1,1.712,1.271,2.844
		c0.259-1.238,0.801-2.551,1.62-3.569C23.791,44.519,23.229,44.346,22.575,44.554z"/>
	<path fill="#666766" d="M42.797,48.322c-0.138,0.196-0.327,0.462-0.344,0.565c0.006,0.02,0.008,0.04,0.012,0.059
		c0.502,0.709,1.04,1.492,1.534,2.327c0.016-0.091,0.033-0.182,0.055-0.272c0.324-1.362,0.88-2.011,1.417-2.638
		c0.383-0.447,0.745-0.869,1.062-1.585c0.326-0.733,0.325-1.449-0.002-2.016c-0.337-0.583-0.98-0.965-1.765-1.047
		c-0.622-0.065-1.037,0.087-1.279,0.229c0.285,0.524,0.397,1.172,0.333,1.942C43.726,47.006,43.188,47.766,42.797,48.322z"/>
	<path fill="#666766" d="M24.475,63.949c0.696-0.169,1.406-0.192,2.084-0.052c0.629,0.129,1.14,0.341,1.556,0.595
		c-0.511-1.329-1.257-2.888-2.168-4.745c-1.893-3.854-3.154-6.527-3.545-8.624c-0.386,1.286-1.192,2.301-1.818,2.974
		c0.389,0.113,0.78,0.306,1.143,0.576c0.67,0.497,1.814,1.679,1.948,4.014c0.099,1.714-0.677,3.104-1.785,4.098
		C22.918,62.942,23.985,63.391,24.475,63.949z"/>
	<path fill="#666766" d="M18.905,41.244c3.171-0.411,3.969-1.392,5.718-3.541c0.846-1.04,1.898-2.333,3.508-3.926
		c2.592-2.564,6.273-4.425,8.751-4.425c0.698,0,1.289,0.143,1.769,0.417c0.03-0.603-0.048-1.424-0.56-2.046
		c-0.635-0.77-1.813-1.096-3.503-0.968c-4.207,0.316-8.409,3.536-11.529,8.835c-1.821,3.096-3.817,4.843-5.93,5.193
		c-0.267,0.044-0.523,0.063-0.765,0.063c-0.33,0-0.634-0.037-0.913-0.094c0.648,0.293,1.513,0.55,2.566,0.55
		C18.309,41.303,18.607,41.283,18.905,41.244z"/>
	<path fill="#666766" d="M19.951,43.929c0.624,0,1.43-0.079,2.709-0.47c1.279-0.392,2.759-1.595,4.16-2.807
		c1.509-1.305,3.22-2.785,5.619-3.733c1.254-0.496,2.402-0.682,3.324-0.832c1.915-0.31,2.859-0.465,3.14-2.681
		c0.014-0.153,0.12-1.124-0.005-1.592c-0.075-0.354-0.212-0.644-0.415-0.861c-0.341-0.367-0.88-0.552-1.602-0.552
		c-2.192,0-5.638,1.772-8.014,4.122c-1.569,1.553-2.602,2.822-3.432,3.842c-1.812,2.227-2.811,3.454-6.396,3.919
		c-0.342,0.044-0.687,0.067-1.022,0.067c-1.064,0-1.963-0.219-2.679-0.501C16.224,42.861,17.693,43.929,19.951,43.929z"/>
	<path fill="#666766" d="M16.462,52.926c-1.437,1.479-2.922,3.009-2.87,5.898c0.034,1.881,0.837,2.992,1.507,3.592
		c0.991,0.889,2.498,1.21,4.207,0.756c2.031-0.541,3.44-2.377,3.322-4.426c-0.11-1.909-1.003-2.844-1.526-3.232
		c-0.619-0.46-1.2-0.537-1.537-0.455c-1.569,0.38-2.236,1.66-2.067,2.672c0.045,0.271,0.275,1.149,1.343,1.046
		c0.287-0.027,0.544,0.185,0.571,0.472c0.028,0.289-0.184,0.545-0.472,0.572c-1.268,0.122-2.264-0.649-2.476-1.916
		c-0.239-1.432,0.615-3.213,2.651-3.806c0.06-0.064,0.135-0.139,0.224-0.227c0.736-0.734,2.269-2.26,2.239-4.315
		c-0.034-2.327-1.946-4.531-1.966-4.553c-0.01-0.011-0.018-0.025-0.027-0.037c-0.739-0.034-1.403-0.17-1.998-0.375
		c0.616,1.145,1.29,2.74,1.245,4.176C18.778,50.54,17.653,51.699,16.462,52.926z"/>
	<path fill="#666766" d="M70.125,33.112c1.719-0.661,2.818-2.017,2.87-3.539c0.079-2.343-0.835-5.232-2.275-7.19
		c-2.328-3.164-2.05-4.821-1.297-5.676c-0.556-0.667-1.133-1.681-1.376-3.147c-0.358,0.348-0.809,1.051-1.013,2.45
		c-0.484,3.322,0.886,5.487,2.096,7.396c0.79,1.248,1.537,2.427,1.558,3.712c0.038,2.328-1.196,2.957-1.728,3.119
		c-0.215,0.066-0.44,0.097-0.664,0.097c-0.783,0-1.565-0.385-1.983-1.029c-0.463-0.712-0.366-1.567,0.258-2.288
		c0.189-0.218,0.521-0.242,0.739-0.053c0.218,0.189,0.242,0.521,0.053,0.739c-0.319,0.368-0.377,0.714-0.172,1.03
		c0.284,0.436,0.94,0.66,1.463,0.5c0.654-0.2,1.004-0.945,0.984-2.099c-0.006-0.422-0.127-0.848-0.32-1.287
		c-0.005-0.01-0.013-0.018-0.019-0.028c-0.318-0.605-1.041-1.362-2.028-1.502c-0.858-0.122-1.876,0.17-2.697,1.021
		c-1.782,1.848-1.634,4.852,0.17,6.72C66.366,33.737,68.586,33.703,70.125,33.112z"/>
	<path fill="#666766" d="M67.42,23.28c0.156,0.022,0.307,0.056,0.453,0.097c-0.867-1.398-1.766-3.052-1.953-5.206
		c-0.42,0.495-0.942,1.383-1.07,2.825c-0.146,1.661,0.147,2.461,0.301,2.754C66.037,23.245,66.835,23.196,67.42,23.28z"/>
	<path fill="#666766" d="M65.403,33.861c-0.495-0.266-0.971-0.617-1.412-1.074c-0.23-0.238-0.434-0.491-0.616-0.754
		c-0.222,0.527-0.46,1.522-0.321,3.259c0.118,1.481,0.504,2.479,0.885,3.124C64.002,36.079,64.832,34.605,65.403,33.861z"/>
	<path fill="#666766" d="M73.336,9.451c0.111-0.039,0.225-0.073,0.344-0.102c0.575-0.14,1.249-0.144,1.932,0.017
		c0.19-0.3,0.496-0.915,0.455-1.711c-0.027-0.505-0.15-0.939-0.285-1.273c-0.467,0.763-1.026,1.404-1.542,1.988
		C73.915,8.74,73.604,9.092,73.336,9.451z"/>
	<path fill="#666766" d="M64.863,47.926c-0.996-1.836-2.298-2.849-2.596-3.066c-0.603,0.233-1.334,0.385-2.215,0.414
		c1.736,1.259,2.603,2.845,3.21,4.467c0.576,1.535,0.585,2.886,0.024,3.804c-0.402,0.662-1.077,1.065-1.95,1.168
		c-0.091,0.011-0.18,0.016-0.265,0.016c-1.3,0-1.883-1.197-2.012-1.87c-0.054-0.285,0.132-0.559,0.417-0.613
		c0.285-0.055,0.559,0.131,0.613,0.416c0.023,0.111,0.251,1.113,1.125,1.01c0.549-0.065,0.946-0.292,1.179-0.673
		c0.188-0.308,0.273-0.718,0.259-1.199c-0.227-1.61-1.601-2.255-2.63-2.328c-1.161-0.081-2.71,0.533-3.257,2.537
		c-0.441,1.622-0.178,2.947,0.592,3.958c0.879,1.15,2.323,1.674,3.46,1.674c1.87,0,4.802-1.671,5.064-4.527
		C66.096,50.76,65.771,49.602,64.863,47.926z"/>
	<path fill="#666766" d="M71.606,4.824c0.025-0.027,0.05-0.055,0.075-0.082c0.526-0.575,1.169-1.247,1.61-1.792
		c0.008-0.09-0.185-0.561-0.666-1.25c-0.292-0.417-1.063-1.04-2.088-1.7c0.527,0.953,1.029,2.141,1.102,3.292
		C71.674,3.87,71.656,4.378,71.606,4.824z"/>
	<polygon fill="#666766" points="73.17,3.044 73.167,3.052 73.173,3.045 	"/>
	<path fill="#666766" d="M65.454,60.042c0.019,0.002,0.036,0.006,0.053,0.008c-0.561-0.874-0.869-1.925-1.028-2.643
		c-0.774,0.587-1.668,0.968-2.515,1.152C62.639,59.1,63.788,59.795,65.454,60.042z"/>
	<path fill="#666766" d="M32.214,44.493c-0.728,0.577-1.604,1.638-1.65,3.424c-0.054,2.086,1.634,4.092,2.3,4.799
		c0.517-0.454,1.125-0.784,1.819-0.987c-1.291-1.178-2.143-2.515-1.886-5.045c0.129-1.269,0.798-2.284,1.573-2.971
		c-0.052-0.014-0.107-0.028-0.172-0.042C33.979,43.625,33.095,43.796,32.214,44.493z"/>
	<path fill="#666766" d="M36.496,43.754c-0.696,0-2.466,1.178-2.656,3.035c-0.232,2.281,0.457,3.296,2.19,4.71
		c0.015-0.001,0.029-0.002,0.043-0.003c0.995-0.056,1.884,0.052,2.654,0.312c-0.041-0.045-0.081-0.089-0.123-0.134
		c-1.166-1.278-2.372-2.599-2.486-4.506c-0.087-1.442,0.254-2.586,0.797-3.371C36.81,43.772,36.672,43.754,36.496,43.754z"/>
	<path fill="#666766" d="M40.425,45.598c0.038,0.486,0.64,1.381,1.342,2.369c0.055-0.083,0.115-0.166,0.174-0.25
		c0.358-0.507,0.765-1.082,0.834-1.918c0.118-1.417-0.511-1.866-1.143-2.119c-0.277-0.111-0.673,0.005-0.943,0.12l0.007,0.011
		c0,0,0.011-0.006,0.028-0.021C40.721,43.793,40.311,44.181,40.425,45.598z"/>
	<path fill="#666766" d="M30.799,43.634c-1.356,0-2.668,1.542-3.268,3.074c-0.652,1.667-0.458,3.564,0.58,5.639
		c0.449,0.9,1.748,3.217,2.877,5.212c0.007-1.614,0.413-3.022,1.168-4.064c-0.724-0.753-2.706-3.056-2.642-5.604
		c0.057-2.178,1.301-3.472,2.201-4.189c-0.192-0.027-0.598-0.063-0.898-0.066C30.812,43.634,30.805,43.634,30.799,43.634z"/>
	<path fill="#666766" d="M52.522,66.664c-0.959-0.431-2.298-1.12-3.834-2.155c-1.909-1.286-2.886-3.201-3.383-4.75
		c-0.257,0.667-0.612,1.273-1.063,1.809c0.019,0.043,0.035,0.089,0.042,0.138c0.007,0.046,0.481,2.954,4.321,5.606
		c0.768,0.531,1.384,1.163,1.869,1.851c0,0-0.001,0-0.001-0.001C50.915,67.961,51.699,67.121,52.522,66.664z"/>
	<path fill="#666766" d="M43.252,61.104c0.938-0.999,1.447-2.345,1.496-3.926c0.002-0.33,0.002-0.641-0.023-0.934
		c-0.221-2.642-2.04-5.188-3.506-7.24c-0.991-1.384-1.771-2.478-1.839-3.323c-0.078-0.971,0.052-1.615,0.225-2.036
		c-0.199-0.034-0.458-0.047-0.778-0.006c-0.892,0.115-1.781,1.473-1.662,3.466c0.092,1.537,1.123,2.666,2.215,3.862
		c1.293,1.417,2.628,2.881,2.528,5.129c0.01,0.427-0.067,0.827-0.189,1.188c-0.325,1.132-1.039,1.984-2.048,2.403
		c-0.42,0.175-0.861,0.26-1.299,0.26c-0.809,0-1.61-0.292-2.255-0.851c-0.822-0.712-1.108-1.775-0.765-2.84
		c0.218-0.675,0.729-1.381,1.379-1.44c0.289-0.024,0.543,0.187,0.568,0.476c0.026,0.288-0.187,0.418-0.475,0.568
		c-0.088,0.028-0.405,0.352-0.525,0.902c-0.075,0.348-0.109,1.011,0.503,1.542c0.693,0.6,1.638,0.759,2.467,0.416
		c0.191-0.08,0.365-0.183,0.525-0.308c0.015-0.018,0.029-0.038,0.047-0.054c0.008-0.008,0.599-0.585,0.877-1.392
		c0.07-0.25,0.118-0.519,0.137-0.805c0.003-0.035,0.002-0.068,0.003-0.103c-0.004-0.085-0.013-0.17-0.029-0.258
		c-0.509-2.886-2.835-3.365-4.697-3.259c-0.034,0.002-0.228,0.018-0.32,0.027c-1.086,0.123-1.956,0.545-2.586,1.26
		c-0.879,0.997-1.294,2.561-1.167,4.405c0.16,2.333,1.798,4.827,5.916,4.827C40.225,63.062,42.049,62.386,43.252,61.104z"/>
	<path fill="#666766" d="M34.562,67.339c1.15-1.174,2.157-2.205,2.332-3.285c-1.118-0.119-2.112-0.427-2.953-0.913
		c0.257,0.678,0.46,1.361,0.533,1.961c0.105,0.862,0.052,1.685-0.06,2.391C34.463,67.441,34.513,67.39,34.562,67.339z"/>
	<path fill="#666766" d="M5.52,52.344c-0.051,0-0.103,0-0.155-0.002c-0.243-0.004-0.481-0.021-0.716-0.047
		c-0.097,0.225-0.317,0.943-0.317,2.838c0,1.36,0.561,2.278,1.076,2.833c-0.005-2.345,0.957-4.418,1.861-5.847
		C6.725,52.268,6.142,52.344,5.52,52.344z"/>
	<path fill="#666766" d="M72.2,45c-1.571-1.304-3.195-2.652-3.987-4.977c-0.967-2.843-0.585-4.74-0.34-5.499
		c-0.483-0.02-0.974-0.098-1.458-0.245c-0.458,0.511-1.531,2.014-1.424,4.804c0.127,3.3,2.531,5.523,4.652,7.485
		c0.174,0.162,0.346,0.32,0.515,0.478c0.395,0.371,0.732,0.674,1.028,0.943c1.413,1.278,1.839,1.664,1.839,3.165
		c0,0.919-0.271,1.621-0.807,2.088c-0.56,0.488-1.254,0.564-1.632,0.564c-0.159,0-0.261-0.014-0.274-0.015
		c-0.286-0.04-0.487-0.304-0.447-0.59c0.04-0.287,0.303-0.488,0.591-0.448c0.002,0,0.649,0.075,1.08-0.305
		c0.293-0.259,0.441-0.694,0.441-1.293c0-0.57-0.043-0.865-0.307-1.218c-0.063-0.063-0.086-0.102-0.136-0.158
		c-0.64-0.73-1.677-0.716-2.459-0.437c-1.26,0.451-2.514,1.724-2.477,3.555c0.047,2.276,1.878,4.576,4.036,4.712
		c2.174,0.137,3.131-0.289,4.321-1.627c1.094-1.231,1.343-2.642,1.206-4.635C75.938,48.101,74.122,46.594,72.2,45z"/>
	<path fill="#666766" d="M74.21,41.321c-0.88-0.766-1.79-1.557-2.567-2.709c-1.335-1.98-1.56-3.481-1.511-4.395
		c-0.357,0.113-0.737,0.2-1.133,0.253c-0.008,0.05-0.021,0.101-0.044,0.149c-0.016,0.033-0.846,1.846,0.25,5.065
		c0.695,2.044,2.137,3.24,3.663,4.507c1.69,1.402,3.429,2.845,4.087,5.469c0.074-0.062,0.151-0.141,0.225-0.248
		c0.32-0.465,0.604-1.459,0.139-3.55C76.813,43.585,75.607,42.536,74.21,41.321z"/>
	<path fill="#666766" d="M70.822,58.698c-0.111,0-0.22-0.003-0.325-0.01c-1.787-0.108-3.487-1.512-4.353-3.338
		c-0.2,0.446-0.457,0.846-0.756,1.2c0.073,0.496,0.468,2.772,1.661,3.681c0.991,0.755,2.152,1.127,3.034,0.97
		c0.553-0.098,0.997-0.403,1.319-0.909c0.429-0.67,0.403-1.301,0.331-1.664C71.414,58.675,71.107,58.698,70.822,58.698z"/>
	<path fill="#666766" d="M75.102,37.895c-1.199-1.477-2.532-3.123-3.074-4.643c-0.238,0.178-0.494,0.344-0.768,0.491
		c-0.105,0.358-0.386,1.853,1.252,4.283c0.7,1.038,1.557,1.783,2.385,2.504c0.625,0.543,1.259,1.096,1.822,1.77
		c0.172-0.752,0.262-1.945-0.48-2.96C75.927,38.912,75.526,38.418,75.102,37.895z"/>
	<path fill="#666766" d="M55.437,63.315c-1.018,0.739-2.396,1.209-4.211,1.209c-0.204,0-0.405-0.011-0.605-0.032
		c2.198,1.298,3.734,1.771,3.752,1.777c0.013,0.003,0.025,0.011,0.037,0.016c1.446,0.158,2.851,1.077,3.028,2.911
		c0.162,1.669-0.936,2.903-2.046,3.089c-0.718,0.122-1.667-0.198-1.979-1.494c-0.068-0.282,0.104-0.565,0.386-0.632
		c0.281-0.066,0.564,0.106,0.632,0.386c0.089,0.368,0.297,0.791,0.787,0.707c0.564-0.094,1.286-0.826,1.177-1.956
		c-0.143-1.468-1.406-1.988-2.445-1.988c-0.869,0-2.412,0.941-2.736,3.165c0.492,1.114,0.7,2.291,0.679,3.377
		c0.147,0.2,0.316,0.382,0.507,0.543c0.86,0.73,2.115,1.003,3.534,0.771c3.06-0.503,4.674-2.757,4.43-6.185
		C60.107,65.404,55.978,63.542,55.437,63.315z"/>
	<path fill="#666766" d="M65.3,61.079c-2.735-0.406-4.251-1.852-4.735-2.396c-0.796-0.041-1.777-0.278-2.669-0.795
		c0.036,0.375,0.29,1.999,2.025,3.214c0.604,0.424,1.19,0.767,1.755,1.099c1.434,0.842,2.789,1.636,3.694,3.393
		c0.125,0.24,0.228,0.48,0.313,0.719c0.345-0.005,1.029-0.159,1.812-1.105c0.593-0.717,0.777-1.642,0.48-2.415
		C67.629,61.893,66.68,61.284,65.3,61.079z"/>
	<path fill="#666766" d="M64.747,66.818c-0.074-0.238-0.174-0.486-0.308-0.745c-0.768-1.486-1.882-2.14-3.294-2.969
		c-0.583-0.342-1.187-0.696-1.826-1.144c-0.815-0.57-1.362-1.223-1.73-1.836c-0.241,0.874-0.665,1.714-1.302,2.424
		c1.358,0.652,4.858,2.679,5.121,6.356c0.064,0.894,0.012,1.723-0.146,2.481c0.436-0.016,1.119-0.142,1.892-0.657
		c0.718-0.479,2.153-1.717,1.651-3.708C64.772,66.958,64.752,66.889,64.747,66.818z"/>
	<path fill="#666766" d="M74.162,22.601c-0.336-0.322-0.684-0.655-1.029-1.039c-1.099-1.221-1.17-2.5-1.127-3.109
		c-0.668-0.22-1.292-0.56-1.834-1.004c-0.571,0.766-0.076,2.316,1.393,4.313c0.475,0.645,1.314,2.227,1.667,2.996
		c0.029,0.022-0.024,0.006,0,0.036c0.01,0.012,0.458,0.264,2.061,1.849c0.115,0.114,0.437,0.514,0.537,0.635
		c0.137-0.333,0.264-0.897,0.167-1.773C75.854,24.22,75.107,23.506,74.162,22.601z"/>
	<path fill="#666766" d="M77.538,11.721c-1.014-1.406-2.537-1.614-3.611-1.353c-0.815,0.199-1.345,0.73-1.453,1.46
		c-0.019,0.131-0.031,0.256-0.035,0.375c0.062,0.893,0.43,1.447,1.044,1.543c0.531,0.083,1.01-0.208,1.073-0.446
		c0.076-0.279,0.363-0.445,0.643-0.37c0.279,0.075,0.445,0.363,0.369,0.642c-0.197,0.731-0.984,1.323-1.886,1.306
		c-0.128-0.004-0.239-0.021-0.336-0.036c-0.091-0.013-0.904-0.149-1.464-0.902c-0.341-0.458-0.506-1.03-0.493-1.707
		c-0.01-0.186-0.011-0.385,0-0.598c0.083-1.708,1.091-2.853,2.066-3.959c0.725-0.822,1.473-1.672,1.918-2.798
		c0.307-0.777,0.521-3.39,0.188-4.303c-0.479,1.77-2.045,3.712-3.105,4.874c-1.557,1.705-3.167,3.467-3.396,5.301
		c-0.28,2.242,0.139,4.087,1.211,5.336c0.845,0.984,2.089,1.57,3.414,1.607c1.741,0.048,3.235-0.786,3.999-2.229
		C78.324,14.252,78.26,12.721,77.538,11.721z"/>
	<path fill="#666766" d="M74.887,21.844c0.258,0.247,0.512,0.491,0.751,0.744c0.115-0.626,0.215-1.669-0.118-2.585
		c-0.282-0.775-0.481-1.169-0.597-1.361c-0.354,0.066-0.72,0.101-1.096,0.101c-0.058,0-0.115,0-0.173-0.002
		c-0.206-0.005-0.409-0.022-0.611-0.049c-0.005,0.472,0.111,1.328,0.869,2.169C74.231,21.215,74.565,21.535,74.887,21.844z"/>
	<path fill="#666766" d="M75.086,33.125c-0.271-0.328-0.578-0.7-0.918-1.155c-0.171-0.228-0.336-0.505-0.482-0.779
		c-0.194,0.454-0.462,0.879-0.798,1.266c0.312,1.427,1.812,3.279,3.028,4.777c0.088,0.109,0.175,0.216,0.261,0.322
		c0.308-0.278,0.689-0.936,0.209-2.376C76.117,34.375,75.707,33.877,75.086,33.125z"/>
	<path fill="#666766" d="M47.622,67.99c-3.395-2.06-3.925-4.506-4.245-5.58c-0.491,0.396-1.047,0.726-1.66,0.987
		c0.194,0.694,0.736,2.374,1.839,4.087c0.718,1.115,1.661,1.918,2.572,2.695c1.235,1.051,2.401,2.044,2.55,3.577
		c0.087,0.893-0.427,1.768-1.222,2.08c-0.191,0.076-0.382,0.111-0.57,0.111c-0.453,0-0.878-0.212-1.184-0.611
		c-0.176-0.23-0.132-0.559,0.097-0.735c0.23-0.175,0.559-0.132,0.735,0.099c0.148,0.192,0.324,0.246,0.538,0.162
		c0.308-0.122,0.61-0.514,0.562-1.003c-0.036-0.364-0.16-0.692-0.35-1.004c-0.027-0.025-0.052-0.052-0.075-0.083
		c-0.47-0.637-1.424-0.931-2.171-0.671c-0.797,0.278-1.648,1.331-1.666,2.708c-0.017,1.375,0.325,2.217,1.136,2.92
		c1.055,0.915,2.449,0.888,3.354,0.677c1.485-0.346,2.764-1.731,3.103-3.514C51.366,72.789,50.786,69.91,47.622,67.99z"/>
	<path fill="#666766" d="M73.7,26.484c0.243,1.017,0.364,2.041,0.344,3.003c0.022,0.033,0.042,0.067,0.058,0.105
		c0.005,0.012,0.448,1.139,0.905,1.748c0.327,0.436,0.625,0.797,0.888,1.116c0.096,0.116,0.188,0.229,0.278,0.339
		c0.088-0.085,0.197-0.238,0.286-0.504c0.204-0.609-0.019-2.886-1.729-4.734C74.347,27.146,74.013,26.833,73.7,26.484z"/>
	<path fill="#666766" d="M13.604,48.298c0.055-1.42-0.434-2.765-0.788-3.539c-0.487,0.959-0.934,1.613-1.047,1.774
		c-0.316,1.422-0.904,2.946-1.985,4.081c-0.071,0.076-0.145,0.148-0.22,0.219c-0.003,0.002-0.004,0.005-0.007,0.007
		c-0.036,0.038-3.646,3.808-3.034,8.128c0.353,2.492,1.241,3.5,1.881,3.907c-0.401-1.923-0.298-4.278,0.58-6.575
		c0.798-2.088,1.928-3.461,2.836-4.565C12.788,50.56,13.553,49.632,13.604,48.298z"/>
	<path fill="#666766" d="M6.19,15.881c2.222-3.334,2.667-5.072,2.65-5.943C8.823,9.077,8.366,8.499,7.982,8.164
		C7.917,8.355,7.856,8.525,7.803,8.667c-0.504,1.331-2.484,3.965-3.667,5.539l-0.231,0.308c-1.035,1.379-1.408,2.224-1.04,3.881
		c0.18,0.81,0.766,1.246,1.189,1.463C4.693,18.127,5.641,16.705,6.19,15.881z"/>
	<path fill="#666766" d="M6.384,32.408c1.204,1.065,2.448,2.167,3.362,3.539c1.547,2.324,2.148,4.582,2.331,6.402
		c0.015,0.042,0.025,0.085,0.028,0.132c0.002,0.035,0.013,0.192,0.017,0.444c0.016,0.281,0.022,0.549,0.021,0.804
		c0.686-1.496,1.337-3.541,1.012-5.488C12.434,33.906,10,31.727,9.56,31.365c-3.398-0.546-5.464-3.573-6.042-6.624
		c-0.082-0.43-0.122-0.856-0.129-1.277c-0.445,0.497-0.916,1.311-0.95,2.545C2.36,28.846,4.315,30.576,6.384,32.408z"/>
	<path fill="#666766" d="M45.436,70.966c-0.921-0.785-1.962-1.674-2.761-2.914c-1.101-1.711-1.674-3.36-1.918-4.198
		c0.107,0.583,0.134,1.584-0.335,3.073c-0.373,1.183-1.123,2.039-1.896,2.766c0.029-0.001,0.06-0.001,0.089-0.001
		c1.515,0,3.567,0.9,4.522,2.797c0.485-0.886,1.169-1.243,1.559-1.378C44.933,71.027,45.183,70.981,45.436,70.966z"/>
	<path fill="#666766" d="M3.648,13.11c1.111-1.483,2.769-3.743,3.174-4.813c0.083-0.219,0.216-0.59,0.346-1.047
		c0.007-0.045,0.019-0.091,0.038-0.135C7.519,5.98,7.797,4.389,7.34,3.259C7.146,2.778,6.787,2.054,6.418,1.346
		c0.026,1.89-0.245,4.408-1.616,6.067c-2.234,2.703-2.371,3.317-1.951,4.576C3.05,12.588,3.402,12.932,3.648,13.11z"/>
	<path fill="#666766" d="M9.026,49.891c1.79-1.879,2.033-5.149,2.047-6.604c-0.06-1.797-0.528-4.249-2.2-6.76
		c-0.838-1.258-2.03-2.313-3.183-3.335c-1.138-1.007-2.296-2.033-3.124-3.265c-0.219,0.508-0.452,1.352-0.419,2.626
		c0.047,1.888,1.222,2.881,2.581,4.03c0.551,0.466,1.122,0.948,1.63,1.51c1.787,1.978,3.069,3.731,2.004,6.769
		c-0.539,1.536-1.95,2.22-3.068,2.22c-0.027,0-0.054,0-0.08-0.001c-0.947-0.028-1.676-0.54-1.904-1.335
		C3.23,45.469,3.391,45.179,3.67,45.1c0.277-0.08,0.568,0.082,0.647,0.36c0.134,0.468,0.63,0.559,0.881,0.573
		c0.027-0.01,0.054-0.02,0.083-0.026c0.346-0.078,0.543-0.366,0.613-0.781c0.132-0.79,0.109-1.834-1.116-2.637
		c-0.934-0.612-2.249-0.515-3.534,0.425c-1.102,0.805-1.568,3.037-1.006,4.815c0.709,2.245,2.654,3.417,5.146,3.465
		C6.89,51.326,8.11,50.852,9.026,49.891z"/>
	<path fill="#666766" d="M3.715,7.086c0.09-0.111,0.183-0.224,0.279-0.34C4.4,6.255,4.691,5.662,4.899,5.026
		C4.635,4.909,4.293,4.702,3.871,4.334C3.458,3.975,3.127,3.304,2.88,2.639C2.775,3.282,2.713,4.055,2.791,4.878
		C2.912,6.166,3.395,6.801,3.715,7.086z"/>
	<path fill="#666766" d="M3.977,41.247c0.471,0.088,1.064,0.248,1.561,0.627c1.258,0.963,1.555,2.078,1.409,3.377
		c0.178-0.206,0.326-0.45,0.426-0.734c0.878-2.504-0.14-3.891-1.793-5.719c-0.461-0.51-1.004-0.969-1.529-1.413
		c-0.35-0.296-0.703-0.595-1.038-0.913c-0.234,0.357-0.553,1.042-0.538,2.113C2.5,40.283,3.536,41.004,3.977,41.247z"/>
	<path fill="#666766" d="M33.433,65.23c-0.135-1.106-0.808-2.608-1.367-3.703c-0.033-0.033-0.062-0.071-0.087-0.112
		c-0.16-0.28-3.941-6.872-4.805-8.6c-1.175-2.351-1.384-4.534-0.619-6.489c0.371-0.948,0.964-1.896,1.709-2.602
		c-0.362,0.016-0.858,0.086-1.528,0.268c-2.238,0.607-3.516,4.005-3.412,6.078c0.102,2.035,1.476,4.97,3.562,9.216
		c1.588,3.231,2.694,5.612,2.969,7.549c0.077,0.579,0.065,1.425-0.031,1.885c-0.425,2.04-1.618,2.678-2.291,2.878
		c-0.265,0.077-0.539,0.115-0.809,0.115c-0.708,0-1.398-0.258-1.863-0.728c-0.46-0.465-0.622-1.068-0.442-1.654
		c0.085-0.277,0.378-0.433,0.654-0.348c0.277,0.084,0.433,0.378,0.348,0.654c-0.065,0.215-0.003,0.42,0.185,0.611
		c0.305,0.308,0.945,0.546,1.63,0.343c0.775-0.229,1.33-0.969,1.562-2.086c0.092-0.443,0.099-0.926,0.032-1.456
		c-0.128-0.481-0.638-1.749-2.482-2.128c-1.107-0.228-2.337,0.1-3.372,0.9c-1.184,0.914-1.908,2.298-1.988,3.8
		c-0.151,2.837,1.026,5.988,4.784,6.326c2.943,0.265,4.578-1.811,4.959-2.365c0.295-1.875,0.924-2.977,2.243-4.404
		C33.145,68.746,33.653,67.037,33.433,65.23z"/>
	<path fill="#666766" d="M19.941,69.567c0.096-1.806,0.969-3.474,2.395-4.576c0.321-0.247,0.658-0.457,1.005-0.629
		c-0.569-0.335-1.674-0.714-2.804-0.556c-0.086,0.012-0.169,0.028-0.252,0.046c-0.332,0.094-0.671,0.221-0.975,0.386
		c-0.895,0.545-1.522,1.554-1.839,2.985c-0.361,1.632-0.177,3.008,0.546,4.088c0.668,0.999,1.683,1.574,2.461,1.891
		C20.062,72.155,19.869,70.929,19.941,69.567z"/>
	<path fill="#666766" d="M14.891,63.587c-0.007,0.007-0.67,0.243-0.955,2.212c-0.15,1.036,0.026,1.882,0.523,2.513
		c0.517,0.657,1.289,0.971,1.818,1.117c-0.077-0.75-0.021-1.563,0.17-2.431c0.238-1.074,0.614-1.882,1.06-2.49
		C16.605,64.469,15.682,64.143,14.891,63.587z"/>
	<path fill="#666766" d="M14.074,62.879c-0.739-0.787-1.495-2.069-1.531-4.036c-0.06-3.325,1.654-5.09,3.167-6.648
		c1.091-1.123,2.033-2.094,2.075-3.46c0.067-2.198-1.986-5.063-2.007-5.091c-0.001-0.002-0.002-0.005-0.004-0.007
		c-0.808-0.595-1.4-1.292-1.807-1.882c-0.162,0.637-0.37,1.241-0.595,1.792c0.108,0.18,1.375,2.345,1.28,4.792
		c-0.066,1.686-0.972,2.787-2.021,4.062c-0.904,1.1-1.929,2.345-2.667,4.273c-1.577,4.122-0.391,8.092,1.152,9.125
		c0.703,0.469,1.382,0.448,1.729,0.391c0.01-0.176,0.028-0.357,0.054-0.542C13.138,64,13.649,63.234,14.074,62.879z"/>
	<path fill="#666766" d="M42.603,74.459c-0.195-2.535-2.446-3.72-3.989-3.72c-0.642,0-1.253,0.269-1.723,0.758
		c-0.349,0.365-0.588,0.826-0.691,1.303c-0.003,0.049-0.011,0.097-0.027,0.14c-0.025,0.156-0.036,0.312-0.03,0.466
		c0.033,0.789,0.243,1.298,0.623,1.514c0.642,0.363,1.728,0.285,1.951-0.263c0.109-0.268,0.653-0.275,0.791-0.021
		c0.138,0.255,0.036,0.509-0.122,0.75c-0.264,0.406-1.809,1.189-3.065,0.476c-0.716-0.405-1.375-1.185-1.331-2.36
		c0.085-2.297,1.176-3.106,2.174-3.989c0.917-0.812,1.866-1.652,2.259-2.901c0.446-1.416,0.373-2.263,0.291-2.641
		c-0.556,0.091-1.135,0.141-1.738,0.141c-0.01,0-0.021-0.001-0.031-0.001c0,0-0.004,0.082-0.04,0.237
		c-0.148,0.734-0.548,1.411-1.074,2.071c-0.433,0.58-1.032,1.252-1.863,1.997c-1.828,1.638-3.022,3.241-3.269,5.183
		c-0.144,1.171-0.074,3.008,1.187,4.454c1.019,1.169,2.432,1.931,4.381,1.948c3.141,0.029,5.079-1.794,5.324-4.569
		C42.589,75.41,42.632,74.835,42.603,74.459z"/>
	<path fill="#666766" d="M56.813,58.185c0-0.513-0.074-0.973-0.207-1.382c-0.031-0.079-0.071-0.165-0.108-0.245
		c-0.161-0.342-0.392-0.7-0.695-1.117c-0.785-0.827-1.92-1.22-3.008-1.22c-1.261,0-2.117,0.786-2.387,1.327
		c-0.505,1.01-0.438,2.336,0.028,3.121c0.032,0.049,0.067,0.096,0.104,0.14c0.489,0.582,1.104,0.623,1.308,0.655
		c0.084,0.003,0.17,0.002,0.259-0.003c0.72-0.039,1.214-0.308,1.394-0.755c0.148-0.372,0.065-0.843-0.197-1.122
		c-0.178-0.189-0.396-0.242-0.649-0.158c-0.273,0.092-0.571-0.057-0.662-0.332c-0.092-0.274,0.056-0.571,0.331-0.663
		c0.636-0.211,1.288-0.049,1.743,0.433c0.546,0.578,0.71,1.475,0.409,2.23c-0.334,0.836-1.176,1.352-2.31,1.415
		c-1.132,0.062-2.053-0.381-2.595-1.245c-0.023-0.036-0.043-0.075-0.064-0.112c-0.012-0.021-0.024-0.042-0.036-0.063
		c-0.012-0.023-0.024-0.047-0.037-0.07c-0.502-0.958-0.542-2.342-0.299-3.931c0.261-1.695,1.209-3,2.16-4.257
		c1.011-1.339,1.968-2.604,2.073-4.323c0.086-1.398-0.149-2.162-0.861-2.544c-0.209-0.082-0.607-0.225-0.883-0.266
		c-0.551-0.082-0.943-0.08-1.214-0.045c0.008,0.009,0.016,0.018,0.023,0.027c0.579,0.741,0.761,1.781,0.543,3.092
		c-0.184,1.104-1.194,2.504-2.362,4.125c-1.27,1.76-2.675,3.096-2.75,5.965c-0.051,1.958,0.798,3.81,2.009,5.117
		c0.951,1.026,2.057,1.484,3.368,1.484C55.35,63.463,56.813,60.736,56.813,58.185z"/>
	<g>
		<path fill="#666766" d="M11.546,16.822c-0.08,0.171-0.188,0.357-0.314,0.549c-0.4,0.663-0.854,1.238-1.3,1.799
			c-0.679,0.855-1.414,1.94-1.719,2.924c0.345-0.608,1.005-1.168,1.568-1.445c0.832-0.408,1.662-0.56,2.387-0.586
			c0.118-0.258,0.276-0.967,0.166-1.821C12.244,17.533,11.84,17.07,11.546,16.822z"/>
		<path fill="#666766" d="M15.774,24.452c-0.092-1.169-0.742-2.308-1.451-2.824c-0.37-0.269-0.778-0.48-1.235-0.55
			c-0.756-0.089-1.827-0.07-2.879,0.446c-0.793,0.39-1.442,1.113-1.695,1.888c-0.221,0.678-0.151,1.367,0.207,2.046l-0.005,0.003
			c0.306,0.479,0.721,0.795,1.219,0.908c0.65,0.146,1.229-0.106,1.444-0.419c0.497-0.724,0.297-1.417,0.288-1.446
			c-0.077-0.255,0.066-0.528,0.321-0.607c0.254-0.08,0.525,0.059,0.607,0.313c0.015,0.047,0.362,1.162-0.414,2.292
			c-0.382,0.557-1.101,0.884-1.866,0.884c-0.197,0-0.397-0.021-0.595-0.066c-0.618-0.14-2.047-0.718-2.431-3.145
			c-0.161-1.016-0.079-1.846,0.142-2.587c0.235-0.817,0.759-1.748,1.003-2.066c0.235-0.329,0.485-0.644,0.734-0.956
			c0.332-0.419,0.67-0.846,0.98-1.309c0.608-1.148,0.621-2.22-0.052-3.592c-0.387-0.79-0.661-1.107-0.797-1.229
			c-0.468,1.147-1.217,2.493-2.24,4.028c-0.942,1.415-3.307,4.673-2.501,8.208c0.679,2.976,2.735,5.845,6.321,5.731
			c0.927-0.031,1.739-0.261,2.429-0.687c0.029-0.023,0.061-0.043,0.094-0.06c0.353-0.23,0.669-0.466,0.954-0.802
			C15.522,27.48,15.908,26.137,15.774,24.452z"/>
	</g>
</g>
</svg>
